<svg width="22" height="22" viewBox="0 0 22 22" fill="none" xmlns="http://www.w3.org/2000/svg">
<circle cx="11" cy="11" r="11" fill="white" fill-opacity="0.75"/>
<path d="M18 9.875C18 14.25 11.5131 17.7913 11.2369 17.9375C11.1641 17.9767 11.0827 17.9972 11 17.9972C10.9173 17.9972 10.8359 17.9767 10.7631 17.9375C10.4869 17.7913 4 14.25 4 9.875C4.00116 8.84764 4.40979 7.86269 5.13624 7.13624C5.86269 6.40979 6.84764 6.00116 7.875 6C9.16563 6 10.2956 6.555 11 7.49312C11.7044 6.555 12.8344 6 14.125 6C15.1524 6.00116 16.1373 6.40979 16.8638 7.13624C17.5902 7.86269 17.9988 8.84764 18 9.875Z" fill="#FE5C5C"/>
</svg>
