<svg width="22" height="22" viewBox="0 0 22 22" fill="none" xmlns="http://www.w3.org/2000/svg">
<circle cx="11" cy="11" r="11" fill="white" fill-opacity="0.75"/>
<path d="M11.0029 17.4956L11.0029 17.4956L11 17.4972L10.9971 17.4956C10.8759 17.4314 9.22268 16.5305 7.60738 15.1159C5.96579 13.6783 4.50014 11.8287 4.5 9.87528C4.50108 8.98043 4.85704 8.12255 5.48979 7.48979C6.12255 6.85704 6.98043 6.50108 7.87528 6.5C9.01967 6.50008 9.99678 6.98973 10.6002 7.79334L11 8.32587L11.3998 7.79334C12.0032 6.98973 12.9803 6.50008 14.1247 6.5C15.0196 6.50108 15.8775 6.85704 16.5102 7.48979C17.143 8.12262 17.499 8.98062 17.5 9.87556C17.4997 11.8289 16.0341 13.6783 14.3926 15.1159C12.7773 16.5305 11.1241 17.4314 11.0029 17.4956Z" stroke="black"/>
</svg>
