<svg width="180" height="39" viewBox="0 0 180 39" fill="none" xmlns="http://www.w3.org/2000/svg">
<path d="M11.2559 29.6465L15.9043 8.5293H17.4648V17.3945L13.8457 33.1328H8.63281L2.42383 8.5293H6.93945L11.2559 29.6465ZM29.418 8.5293H33.9336L27.3262 33.1328H22.1465L18.8262 18.0254V8.5293H20.4199L24.7363 29.6465L29.418 8.5293Z" fill="#C2683A"/>
<path d="M38.2266 19.7109C39.0859 19.7578 39.8672 19.9688 40.5703 20.3438C41.2734 20.7031 41.8594 21.1875 42.3281 21.7969C42.8125 22.3906 43.1875 23.0859 43.4531 23.8828C43.7188 24.6797 43.8516 25.5312 43.8516 26.4375C43.8516 27.3438 43.7109 28.1953 43.4297 28.9922C43.1641 29.7734 42.7891 30.4609 42.3047 31.0547C41.8203 31.6328 41.2266 32.1016 40.5234 32.4609C39.8203 32.8203 39.0547 33.0312 38.2266 33.0938V30.8438C39.0078 30.6719 39.6406 30.1797 40.125 29.3672C40.625 28.5547 40.875 27.5781 40.875 26.4375C40.875 25.8594 40.8125 25.3203 40.6875 24.8203C40.5781 24.3047 40.4062 23.8438 40.1719 23.4375C39.9375 23.0312 39.6562 22.6953 39.3281 22.4297C39 22.1641 38.6328 21.9922 38.2266 21.9141V19.7109ZM31.6875 26.3906C31.6875 25.4844 31.8203 24.6406 32.0859 23.8594C32.3516 23.0781 32.7266 22.3984 33.2109 21.8203C33.7109 21.2266 34.3047 20.75 34.9922 20.3906C35.6797 20.0312 36.4375 19.8125 37.2656 19.7344V21.9141C36.4844 22.0859 35.8594 22.5781 35.3906 23.3906C34.9219 24.2031 34.6875 25.1797 34.6875 26.3203C34.6875 26.8984 34.7422 27.4453 34.8516 27.9609C34.9766 28.4766 35.1484 28.9375 35.3672 29.3438C35.5859 29.75 35.8516 30.0859 36.1641 30.3516C36.4922 30.6172 36.8594 30.7812 37.2656 30.8438V33.0938C36.4062 33.0312 35.6328 32.8203 34.9453 32.4609C34.2578 32.0859 33.6719 31.6016 33.1875 31.0078C32.7031 30.4141 32.3281 29.7188 32.0625 28.9219C31.8125 28.125 31.6875 27.2812 31.6875 26.3906ZM50.0625 19.7812L50.3672 21.1406V28.3125V28.3594V33H47.5312V19.7812H50.0625ZM51.3281 20.3672C51.7188 20.1484 52.1875 19.9844 52.7344 19.875C53.2812 19.75 54.0234 19.6875 54.9609 19.6875V22.6406C54.5234 22.5156 53.9922 22.4453 53.3672 22.4297C53.0234 22.4297 52.6719 22.4609 52.3125 22.5234C51.9688 22.5703 51.6406 22.6484 51.3281 22.7578V20.3672ZM63.6328 26.3672L68.8828 33H65.6484L61.8047 27.9375V24.6797L65.0859 19.7812H68.2734L63.6328 26.3672ZM57.9844 33V14.7891H60.8438V33H57.9844ZM71.4609 23.5547C71.4609 22.9609 71.5703 22.4297 71.7891 21.9609C72.0078 21.4766 72.3125 21.0703 72.7031 20.7422C73.0938 20.3984 73.5312 20.1328 74.0156 19.9453C74.5156 19.7422 75.0312 19.6172 75.5625 19.5703V21.9141C75.1562 21.9922 74.8359 22.1562 74.6016 22.4062C74.3828 22.6562 74.2734 23.0078 74.2734 23.4609C74.2734 23.8359 74.3906 24.1406 74.625 24.375C74.875 24.5938 75.1875 24.7891 75.5625 24.9609V27.4688C75.2969 27.3906 75.0234 27.3047 74.7422 27.2109C74.4766 27.1016 74.2109 26.9844 73.9453 26.8594C73.1172 26.4219 72.4922 25.9609 72.0703 25.4766C71.6641 24.9922 71.4609 24.3516 71.4609 23.5547ZM79.2891 22.5703C78.8672 22.3516 78.4141 22.1875 77.9297 22.0781C77.4609 21.9688 76.9922 21.8984 76.5234 21.8672V19.5469C77.2266 19.5781 77.875 19.6797 78.4688 19.8516C79.0625 20.0078 79.6406 20.2656 80.2031 20.625L79.2891 22.5703ZM72.7031 30.0469C73.0156 30.2656 73.3828 30.4688 73.8047 30.6562C74.2422 30.8438 74.7891 30.9375 75.4453 30.9375H75.5625V33.1172C75.1719 33.1172 74.8125 33.1016 74.4844 33.0703C74.1562 33.0547 73.8281 33.0078 73.5 32.9297C73.1875 32.8359 72.8672 32.7109 72.5391 32.5547C72.2109 32.3984 71.8672 32.1953 71.5078 31.9453L72.7031 30.0469ZM76.5234 25.3359C76.9922 25.4922 77.4688 25.6641 77.9531 25.8516C78.4375 26.0391 78.875 26.2734 79.2656 26.5547C79.6719 26.8359 80 27.1875 80.25 27.6094C80.5156 28.0156 80.6484 28.5312 80.6484 29.1562C80.6484 29.7656 80.5391 30.2969 80.3203 30.75C80.1016 31.2031 79.8047 31.5938 79.4297 31.9219C79.0703 32.25 78.6406 32.5078 78.1406 32.6953C77.6406 32.8828 77.1016 33.0078 76.5234 33.0703V30.8438C77.0547 30.75 77.4609 30.5859 77.7422 30.3516C78.0391 30.1016 78.1875 29.7734 78.1875 29.3672C78.1875 28.9609 78.0234 28.6484 77.6953 28.4297C77.3828 28.1953 76.9922 27.9922 76.5234 27.8203V25.3359ZM84.3281 14.7891H87.1641V33H84.3281V14.7891ZM94.1719 21.2344C94.4375 21.5 94.6406 21.8125 94.7812 22.1719C94.9375 22.5156 95.0469 22.8828 95.1094 23.2734C95.1875 23.6484 95.2344 24.0312 95.25 24.4219C95.2656 24.8125 95.2734 25.1953 95.2734 25.5703V32.5312V33H92.4141V25.8047C92.4141 25.2734 92.3906 24.7656 92.3438 24.2812C92.2969 23.7969 92.1875 23.3672 92.0156 22.9922C91.8438 22.6172 91.6094 22.3281 91.3125 22.125C91.0156 21.9062 90.6016 21.7969 90.0703 21.7969C89.8516 21.7969 89.5547 21.8359 89.1797 21.9141C88.8203 21.9766 88.4688 22.0859 88.125 22.2422V20.4375C88.5469 20.2188 89 20.0312 89.4844 19.875C89.9844 19.7188 90.4688 19.6406 90.9375 19.6406C91.6406 19.6406 92.2344 19.7891 92.7188 20.0859C93.2031 20.3672 93.6875 20.75 94.1719 21.2344ZM104.812 19.7109C105.672 19.7578 106.453 19.9688 107.156 20.3438C107.859 20.7031 108.445 21.1875 108.914 21.7969C109.398 22.3906 109.773 23.0859 110.039 23.8828C110.305 24.6797 110.438 25.5312 110.438 26.4375C110.438 27.3438 110.297 28.1953 110.016 28.9922C109.75 29.7734 109.375 30.4609 108.891 31.0547C108.406 31.6328 107.812 32.1016 107.109 32.4609C106.406 32.8203 105.641 33.0312 104.812 33.0938V30.8438C105.594 30.6719 106.227 30.1797 106.711 29.3672C107.211 28.5547 107.461 27.5781 107.461 26.4375C107.461 25.8594 107.398 25.3203 107.273 24.8203C107.164 24.3047 106.992 23.8438 106.758 23.4375C106.523 23.0312 106.242 22.6953 105.914 22.4297C105.586 22.1641 105.219 21.9922 104.812 21.9141V19.7109ZM98.2734 26.3906C98.2734 25.4844 98.4062 24.6406 98.6719 23.8594C98.9375 23.0781 99.3125 22.3984 99.7969 21.8203C100.297 21.2266 100.891 20.75 101.578 20.3906C102.266 20.0312 103.023 19.8125 103.852 19.7344V21.9141C103.07 22.0859 102.445 22.5781 101.977 23.3906C101.508 24.2031 101.273 25.1797 101.273 26.3203C101.273 26.8984 101.328 27.4453 101.438 27.9609C101.562 28.4766 101.734 28.9375 101.953 29.3438C102.172 29.75 102.438 30.0859 102.75 30.3516C103.078 30.6172 103.445 30.7812 103.852 30.8438V33.0938C102.992 33.0312 102.219 32.8203 101.531 32.4609C100.844 32.0859 100.258 31.6016 99.7734 31.0078C99.2891 30.4141 98.9141 29.7188 98.6484 28.9219C98.3984 28.125 98.2734 27.2812 98.2734 26.3906ZM116.672 19.7812L116.977 21.1172V38.2031H114.117V19.7812H116.672ZM125.672 23.7891C125.859 24.5078 125.953 25.3125 125.953 26.2031C125.953 27.0938 125.844 27.9609 125.625 28.8047C125.422 29.6328 125.102 30.3672 124.664 31.0078C124.242 31.6484 123.703 32.1641 123.047 32.5547C122.406 32.9297 121.648 33.1172 120.773 33.1172C120.227 33.1172 119.703 33.0547 119.203 32.9297C118.719 32.8047 118.297 32.6406 117.938 32.4375V30C118.453 30.6094 119.086 30.9141 119.836 30.9141C120.305 30.9141 120.727 30.7969 121.102 30.5625C121.492 30.3281 121.82 30.0156 122.086 29.625C122.367 29.2188 122.586 28.7422 122.742 28.1953C122.898 27.6328 122.977 27.0391 122.977 26.4141C122.977 25.8047 122.906 25.2266 122.766 24.6797C122.625 24.1328 122.422 23.6484 122.156 23.2266C121.906 22.8047 121.594 22.4688 121.219 22.2188C120.859 21.9688 120.438 21.8438 119.953 21.8438C119.547 21.8438 119.172 21.9297 118.828 22.1016C118.5 22.2578 118.203 22.4844 117.938 22.7812V20.2969C118.297 20.0938 118.695 19.9375 119.133 19.8281C119.57 19.7188 120.023 19.6641 120.492 19.6641C121.008 19.6641 121.531 19.7344 122.062 19.875C122.594 20.0156 123.086 20.25 123.539 20.5781C124.008 20.9062 124.43 21.3359 124.805 21.8672C125.18 22.3984 125.469 23.0391 125.672 23.7891Z" fill="#272932"/>
<path d="M148.748 9.5293V34H144.764V22.9766H135.533V20.2539H144.764V9.5293H148.748ZM130.121 9.5293H134.172V34H130.121V9.5293Z" fill="#C2683A"/>
<path d="M155.781 27.9766C155.781 28.5234 155.805 29.0391 155.852 29.5234C155.898 29.9922 156 30.4062 156.156 30.7656C156.312 31.125 156.547 31.4141 156.859 31.6328C157.172 31.8516 157.586 31.9609 158.102 31.9609C158.305 31.9609 158.594 31.9297 158.969 31.8672C159.344 31.8047 159.703 31.7031 160.047 31.5625V33.2969C159.641 33.5156 159.195 33.7109 158.711 33.8828C158.242 34.0391 157.773 34.1172 157.305 34.1172C156.93 34.1172 156.594 34.0781 156.297 34C156 33.9375 155.719 33.8359 155.453 33.6953C155.203 33.5391 154.961 33.3672 154.727 33.1797C154.492 32.9922 154.258 32.7812 154.023 32.5469C153.758 32.2812 153.547 31.9766 153.391 31.6328C153.234 31.2734 153.117 30.9062 153.039 30.5312C152.977 30.1406 152.938 29.75 152.922 29.3594C152.922 28.9688 152.922 28.5859 152.922 28.2109V20.7812H155.781V27.9766ZM163.867 20.7812V34H161.312L161.008 32.6406V20.7812H163.867ZM167.852 15.7891H170.688V32.4297C170.672 32.6484 170.648 32.8984 170.617 33.1797C170.586 33.4609 170.562 33.7344 170.547 34H167.852V15.7891ZM179.406 24.7891C179.594 25.5078 179.688 26.2969 179.688 27.1562C179.688 28.0469 179.578 28.9141 179.359 29.7578C179.156 30.6016 178.836 31.3516 178.398 32.0078C177.977 32.6484 177.438 33.1641 176.781 33.5547C176.141 33.9297 175.383 34.1172 174.508 34.1172C173.961 34.1172 173.438 34.0547 172.938 33.9297C172.438 33.8047 172.008 33.6328 171.648 33.4141V30.9766C171.883 31.2422 172.156 31.4609 172.469 31.6328C172.797 31.8047 173.156 31.8906 173.547 31.8906C174.016 31.8906 174.438 31.7734 174.812 31.5391C175.203 31.3047 175.531 30.9922 175.797 30.6016C176.078 30.1953 176.297 29.7188 176.453 29.1719C176.625 28.625 176.711 28.0391 176.711 27.4141C176.711 26.8047 176.633 26.2266 176.477 25.6797C176.336 25.1328 176.133 24.6484 175.867 24.2266C175.617 23.8047 175.305 23.4688 174.93 23.2188C174.555 22.9688 174.133 22.8438 173.664 22.8438C173.258 22.8438 172.883 22.9297 172.539 23.1016C172.211 23.2578 171.914 23.4922 171.648 23.8047V21.2969C172.008 21.0938 172.406 20.9375 172.844 20.8281C173.281 20.7188 173.734 20.6641 174.203 20.6641C174.719 20.6641 175.242 20.7344 175.773 20.875C176.305 21.0156 176.797 21.25 177.25 21.5781C177.719 21.9062 178.141 22.3359 178.516 22.8672C178.906 23.3984 179.203 24.0391 179.406 24.7891Z" fill="#272932"/>
</svg>
